<svg width="25" height="26" viewBox="0 0 25 26" fill="none" xmlns="http://www.w3.org/2000/svg">
    <g opacity="0.3">
        <path fill-rule="evenodd" clip-rule="evenodd"
            d="M5.0036 12.4303C4.90767 12.5941 4.82801 12.7401 4.76409 12.8627C4.82801 12.9854 4.90767 13.1313 5.0036 13.2952C5.31518 13.8273 5.79237 14.5375 6.45059 15.2453C7.76256 16.6561 9.76125 18.029 12.6197 18.029C15.4781 18.029 17.4768 16.6561 18.7887 15.2453C19.447 14.5375 19.9242 13.8273 20.2357 13.2952C20.3317 13.1313 20.4113 12.9854 20.4752 12.8627C20.4113 12.7401 20.3317 12.5941 20.2357 12.4303C19.9242 11.8981 19.447 11.188 18.7887 10.4802C17.4768 9.06937 15.4781 7.69641 12.6197 7.69641C9.76125 7.69641 7.76256 9.06937 6.45059 10.4802C5.79237 11.188 5.31518 11.8981 5.0036 12.4303ZM22.5035 13.2707C22.5037 13.2702 22.5039 13.2697 21.588 12.8627L22.5039 13.2697C22.6113 13.0098 22.6113 12.7156 22.5039 12.4557L21.588 12.8627C22.5039 12.4557 22.5037 12.4553 22.5035 12.4548L22.5031 12.4537L22.502 12.4512L22.4992 12.4444L22.4905 12.4242C22.4835 12.4078 22.4738 12.3856 22.4614 12.358C22.4367 12.3028 22.4013 12.2259 22.3548 12.1305C22.2619 11.9397 22.1243 11.6738 21.9393 11.3578C21.5702 10.7275 21.0065 9.8878 20.2234 9.04571C18.6527 7.35671 16.1672 5.62988 12.6197 5.62988C9.07214 5.62988 6.58668 7.35671 5.01597 9.04571C4.23287 9.8878 3.66909 10.7275 3.30004 11.3578C3.115 11.6738 2.97743 11.9397 2.88451 12.1305C2.83802 12.2259 2.80259 12.3028 2.77788 12.358C2.76552 12.3856 2.75584 12.4078 2.74878 12.4242L2.74016 12.4444L2.73732 12.4512L2.73626 12.4537L2.73582 12.4548C2.73563 12.4553 2.73545 12.4557 3.65132 12.8627L2.73545 12.4557C2.62802 12.7156 2.62802 13.0098 2.73545 13.2697L3.65132 12.8627C2.73545 13.2697 2.73563 13.2702 2.73582 13.2707L2.73626 13.2717L2.73732 13.2743L2.74016 13.281L2.74878 13.3013C2.75584 13.3177 2.76552 13.3399 2.77788 13.3675C2.80259 13.4226 2.83802 13.4995 2.88451 13.595C2.97743 13.7857 3.115 14.0516 3.30004 14.3677C3.66909 14.9979 4.23287 15.8376 5.01597 16.6797C6.58668 18.3687 9.07214 20.0956 12.6197 20.0956C16.1672 20.0956 18.6527 18.3687 20.2234 16.6797C21.0065 15.8376 21.5702 14.9979 21.9393 14.3677C22.1243 14.0516 22.2619 13.7857 22.3548 13.595C22.4013 13.4995 22.4367 13.4226 22.4614 13.3675C22.4738 13.3399 22.4835 13.3177 22.4905 13.3013L22.4992 13.281L22.502 13.2743L22.5031 13.2717L22.5035 13.2707ZM12.6197 14.9293C11.519 14.9293 10.6267 14.004 10.6267 12.8627C10.6267 11.7214 11.519 10.7962 12.6197 10.7962C13.7203 10.7962 14.6126 11.7214 14.6126 12.8627C14.6126 14.004 13.7203 14.9293 12.6197 14.9293ZM8.63375 12.8627C8.63375 10.5801 10.4183 8.72967 12.6197 8.72967C14.821 8.72967 16.6056 10.5801 16.6056 12.8627C16.6056 15.1453 14.821 16.9958 12.6197 16.9958C10.4183 16.9958 8.63375 15.1453 8.63375 12.8627Z"
            fill="black" />
    </g>
</svg>